<svg xmlns="http://www.w3.org/2000/svg" width="20" height="20" viewBox="0 0 37.5 37.5" version="1.0">
    <defs>
        <clipPath id="a">
            <path d="M 0 0 L 37.007812 0 L 37.007812 37.007812 L 0 37.007812 Z M 0 0" />
        </clipPath>
    </defs>
    <g clip-path="url(#a)">
        <path fill="#1A4789"
            d="M 37.5 18.75 C 37.5 19.363281 37.472656 19.976562 37.410156 20.589844 C 37.351562 21.199219 37.261719 21.804688 37.140625 22.410156 C 37.023438 23.011719 36.871094 23.605469 36.695312 24.191406 C 36.515625 24.78125 36.308594 25.359375 36.074219 25.925781 C 35.839844 26.492188 35.578125 27.046875 35.289062 27.589844 C 35 28.128906 34.683594 28.65625 34.34375 29.167969 C 34 29.679688 33.636719 30.171875 33.246094 30.644531 C 32.855469 31.121094 32.445312 31.574219 32.011719 32.007812 C 31.574219 32.441406 31.121094 32.855469 30.648438 33.246094 C 30.171875 33.632812 29.679688 34 29.167969 34.339844 C 28.65625 34.683594 28.132812 34.996094 27.589844 35.285156 C 27.046875 35.574219 26.496094 35.839844 25.925781 36.074219 C 25.359375 36.308594 24.78125 36.515625 24.195312 36.691406 C 23.605469 36.871094 23.011719 37.019531 22.410156 37.140625 C 21.808594 37.261719 21.199219 37.351562 20.589844 37.410156 C 19.976562 37.46875 19.367188 37.5 18.75 37.5 C 18.136719 37.5 17.523438 37.46875 16.914062 37.410156 C 16.300781 37.351562 15.695312 37.261719 15.09375 37.140625 C 14.492188 37.019531 13.894531 36.871094 13.308594 36.691406 C 12.722656 36.515625 12.144531 36.308594 11.578125 36.074219 C 11.007812 35.839844 10.453125 35.574219 9.914062 35.285156 C 9.371094 34.996094 8.84375 34.683594 8.335938 34.339844 C 7.824219 34 7.332031 33.632812 6.855469 33.246094 C 6.382812 32.855469 5.925781 32.441406 5.492188 32.007812 C 5.058594 31.574219 4.648438 31.121094 4.257812 30.644531 C 3.867188 30.171875 3.503906 29.679688 3.160156 29.167969 C 2.820312 28.65625 2.503906 28.128906 2.214844 27.589844 C 1.925781 27.046875 1.664062 26.492188 1.429688 25.925781 C 1.195312 25.359375 0.988281 24.78125 0.808594 24.191406 C 0.628906 23.605469 0.480469 23.011719 0.363281 22.410156 C 0.242188 21.804688 0.152344 21.199219 0.0898438 20.589844 C 0.03125 19.976562 0 19.363281 0 18.75 C 0 18.136719 0.03125 17.523438 0.0898438 16.914062 C 0.152344 16.300781 0.242188 15.695312 0.363281 15.09375 C 0.480469 14.488281 0.628906 13.894531 0.808594 13.308594 C 0.988281 12.71875 1.195312 12.140625 1.429688 11.574219 C 1.664062 11.007812 1.925781 10.453125 2.214844 9.910156 C 2.503906 9.371094 2.820312 8.84375 3.160156 8.332031 C 3.503906 7.824219 3.867188 7.332031 4.257812 6.855469 C 4.648438 6.378906 5.058594 5.925781 5.492188 5.492188 C 5.925781 5.058594 6.382812 4.644531 6.855469 4.257812 C 7.332031 3.867188 7.824219 3.5 8.335938 3.160156 C 8.84375 2.820312 9.371094 2.503906 9.914062 2.214844 C 10.453125 1.925781 11.007812 1.664062 11.578125 1.425781 C 12.144531 1.191406 12.722656 0.984375 13.308594 0.808594 C 13.894531 0.628906 14.492188 0.480469 15.09375 0.359375 C 15.695312 0.242188 16.300781 0.152344 16.914062 0.0898438 C 17.523438 0.03125 18.136719 0 18.75 0 C 19.367188 0 19.976562 0.03125 20.589844 0.0898438 C 21.199219 0.152344 21.808594 0.242188 22.410156 0.359375 C 23.011719 0.480469 23.605469 0.628906 24.195312 0.808594 C 24.78125 0.984375 25.359375 1.191406 25.925781 1.425781 C 26.496094 1.664062 27.046875 1.925781 27.589844 2.214844 C 28.132812 2.503906 28.65625 2.820312 29.167969 3.160156 C 29.679688 3.5 30.171875 3.867188 30.648438 4.257812 C 31.121094 4.644531 31.574219 5.058594 32.011719 5.492188 C 32.445312 5.925781 32.855469 6.378906 33.246094 6.855469 C 33.636719 7.332031 34 7.824219 34.34375 8.332031 C 34.683594 8.84375 35 9.371094 35.289062 9.910156 C 35.578125 10.453125 35.839844 11.007812 36.074219 11.574219 C 36.308594 12.140625 36.515625 12.71875 36.695312 13.308594 C 36.871094 13.894531 37.023438 14.488281 37.140625 15.09375 C 37.261719 15.695312 37.351562 16.300781 37.410156 16.914062 C 37.472656 17.523438 37.5 18.136719 37.5 18.75 Z M 37.5 18.75" />
    </g>
    <path fill="#FFF"
        d="M 23.457031 19.714844 L 23.988281 15.605469 L 19.917969 15.605469 L 19.917969 12.980469 C 19.917969 11.789062 20.25 10.980469 21.957031 10.980469 L 24.128906 10.976562 L 24.128906 7.300781 C 23.753906 7.25 22.464844 7.140625 20.960938 7.140625 C 17.820312 7.140625 15.671875 9.054688 15.671875 12.574219 L 15.671875 15.605469 L 12.125 15.605469 L 12.125 19.714844 L 15.671875 19.714844 L 15.671875 30.261719 L 19.917969 30.261719 L 19.917969 19.714844 Z M 23.457031 19.714844" />
</svg>