<svg xmlns="http://www.w3.org/2000/svg" height="20" width="20" viewBox="0 0 37.5 37.5" version="1.0">
    <defs>
        <clipPath id="a">
            <path d="M 0.238281 0 L 36.988281 0 L 36.988281 37.007812 L 0.238281 37.007812 Z M 0.238281 0" />
        </clipPath>
        <clipPath id="b">
            <path d="M 0.238281 10 L 9 10 L 9 28 L 0.238281 28 Z M 0.238281 10" />
        </clipPath>
        <clipPath id="c">
            <path d="M 19 15 L 36.988281 15 L 36.988281 33 L 19 33 Z M 19 15" />
        </clipPath>
        <clipPath id="d">
            <path d="M 2 22 L 32 22 L 32 37.007812 L 2 37.007812 Z M 2 22" />
        </clipPath>
    </defs>
    <g clip-path="url(#a)">
        <path fill="#FFF"
            d="M 13.09375 1.375 C 8.636719 2.917969 4.828125 6.273438 2.71875 10.546875 C 1.976562 12.015625 1.449219 13.5625 1.113281 15.203125 C 0.300781 19.207031 0.875 23.503906 2.695312 27.148438 C 3.894531 29.535156 5.59375 31.660156 7.679688 33.300781 C 9.640625 34.871094 11.917969 36.050781 14.335938 36.679688 C 17.402344 37.5 20.636719 37.476562 23.726562 36.777344 C 26.507812 36.125 29.140625 34.796875 31.25 32.84375 C 33.476562 30.792969 35.058594 28.089844 35.898438 25.167969 C 36.808594 22.007812 36.925781 18.605469 36.351562 15.371094 C 30.601562 15.371094 24.855469 15.371094 19.105469 15.371094 C 19.105469 17.785156 19.105469 20.171875 19.105469 22.585938 C 22.433594 22.585938 25.765625 22.585938 29.09375 22.585938 C 28.710938 24.878906 27.34375 27.003906 25.429688 28.304688 C 24.207031 29.125 22.816406 29.65625 21.378906 29.921875 C 19.941406 30.164062 18.433594 30.210938 16.996094 29.921875 C 15.535156 29.632812 14.144531 29.003906 12.925781 28.136719 C 10.984375 26.761719 9.472656 24.734375 8.730469 22.464844 C 7.941406 20.148438 7.941406 17.589844 8.730469 15.273438 C 9.28125 13.660156 10.191406 12.136719 11.390625 10.90625 C 12.875 9.386719 14.792969 8.277344 16.875 7.84375 C 18.648438 7.457031 20.519531 7.527344 22.265625 8.058594 C 23.753906 8.519531 25.09375 9.339844 26.21875 10.402344 C 27.34375 9.265625 28.472656 8.132812 29.597656 7 C 30.195312 6.394531 30.820312 5.816406 31.371094 5.1875 C 29.667969 3.59375 27.65625 2.316406 25.476562 1.496094 C 21.5 0.0234375 17.070312 0 13.09375 1.375 Z M 13.09375 1.375" />
    </g>
    <path fill="#EA4335"
        d="M 13.09375 1.375 C 17.042969 0 21.5 0.0234375 25.453125 1.496094 C 27.632812 2.316406 29.644531 3.570312 31.347656 5.1875 C 30.769531 5.816406 30.148438 6.394531 29.574219 7 C 28.449219 8.132812 27.320312 9.265625 26.195312 10.402344 C 25.09375 9.339844 23.726562 8.519531 22.242188 8.058594 C 20.519531 7.527344 18.625 7.457031 16.851562 7.84375 C 14.792969 8.300781 12.851562 9.386719 11.367188 10.90625 C 10.167969 12.136719 9.257812 13.632812 8.707031 15.273438 C 6.695312 13.707031 4.707031 12.136719 2.695312 10.570312 C 4.828125 6.273438 8.636719 2.917969 13.09375 1.375 Z M 13.09375 1.375" />
    <g clip-path="url(#b)">
        <path fill="#FBBC05"
            d="M 1.113281 15.179688 C 1.449219 13.5625 1.976562 11.992188 2.71875 10.519531 C 4.730469 12.089844 6.71875 13.660156 8.730469 15.226562 C 7.941406 17.542969 7.941406 20.101562 8.730469 22.417969 C 6.71875 23.988281 4.730469 25.554688 2.71875 27.125 C 0.875 23.457031 0.324219 19.183594 1.113281 15.179688 Z M 1.113281 15.179688" />
    </g>
    <g clip-path="url(#c)">
        <path fill="#4285F4"
            d="M 19.082031 15.371094 C 24.832031 15.371094 30.578125 15.371094 36.328125 15.371094 C 36.902344 18.628906 36.785156 22.007812 35.875 25.167969 C 35.035156 28.089844 33.453125 30.765625 31.226562 32.84375 C 29.285156 31.324219 27.34375 29.800781 25.40625 28.28125 C 27.320312 26.980469 28.6875 24.878906 29.070312 22.5625 C 25.742188 22.5625 22.410156 22.5625 19.082031 22.5625 C 19.082031 20.171875 19.082031 17.761719 19.082031 15.371094 Z M 19.082031 15.371094" />
    </g>
    <g clip-path="url(#d)">
        <path fill="#34A853"
            d="M 2.71875 27.125 C 4.730469 25.554688 6.71875 23.988281 8.730469 22.417969 C 9.5 24.6875 10.984375 26.714844 12.925781 28.089844 C 14.144531 28.957031 15.535156 29.5625 16.996094 29.875 C 18.433594 30.164062 19.917969 30.140625 21.378906 29.875 C 22.816406 29.609375 24.207031 29.078125 25.429688 28.257812 C 27.371094 29.777344 29.308594 31.296875 31.25 32.820312 C 29.140625 34.773438 26.53125 36.101562 23.726562 36.75 C 20.660156 37.453125 17.402344 37.476562 14.335938 36.65625 C 11.917969 36.003906 9.640625 34.84375 7.679688 33.277344 C 5.617188 31.636719 3.894531 29.488281 2.71875 27.125 Z M 2.71875 27.125" />
    </g>
</svg>